<svg width="22" height="25" viewBox="0 0 22 25" fill="none" xmlns="http://www.w3.org/2000/svg">
<path d="M11 4.28738C9.14348 4.28738 7.36301 5.02488 6.05025 6.33764C4.7375 7.65039 4 9.43087 4 11.2874V16.2874C4 17.083 3.68393 17.8461 3.12132 18.4087C2.55871 18.9713 1.79565 19.2874 1 19.2874H21C20.2044 19.2874 19.4413 18.9713 18.8787 18.4087C18.3161 17.8461 18 17.083 18 16.2874V11.2874C18 9.43087 17.2625 7.65039 15.9497 6.33764C14.637 5.02488 12.8565 4.28738 11 4.28738ZM11 4.28738V1.28738M12.73 23.2874C12.5542 23.5905 12.3018 23.842 11.9982 24.0169C11.6946 24.1918 11.3504 24.2838 11 24.2838C10.6496 24.2838 10.3054 24.1918 10.0018 24.0169C9.69816 23.842 9.44581 23.5905 9.27 23.2874" stroke="#00C48C" stroke-linecap="round" stroke-linejoin="round"/>
</svg>
