<svg width="28" height="29" viewBox="0 0 28 29" fill="none" xmlns="http://www.w3.org/2000/svg">
<path d="M18 23.1428V21.1428C18 20.082 17.5786 19.0645 16.8284 18.3144C16.0783 17.5643 15.0609 17.1428 14 17.1428H7C5.93913 17.1428 4.92172 17.5643 4.17157 18.3144C3.42143 19.0645 3 20.082 3 21.1428V23.1428M19 13.1428L21 15.1428L25 11.1428M14.5 9.14282C14.5 11.352 12.7091 13.1428 10.5 13.1428C8.29086 13.1428 6.5 11.352 6.5 9.14282C6.5 6.93368 8.29086 5.14282 10.5 5.14282C12.7091 5.14282 14.5 6.93368 14.5 9.14282Z" stroke="#999999" stroke-linecap="round" stroke-linejoin="round"/>
</svg>
